<svg xmlns="http://www.w3.org/2000/svg" viewBox="0 0 400 400" width="400" height="400">
  <defs>
    <clipPath id="boulder-mask-1" clipPathUnits="objectBoundingBox">
      <path d="M0.50,0.02 C0.62,0.01 0.74,0.05 0.83,0.12 C0.89,0.17 0.94,0.24 0.96,0.32 C0.98,0.40 0.99,0.49 0.97,0.58 C0.95,0.65 0.92,0.72 0.87,0.78 C0.82,0.84 0.75,0.89 0.67,0.93 C0.59,0.97 0.50,0.99 0.41,0.98 C0.32,0.97 0.24,0.94 0.17,0.89 C0.11,0.84 0.06,0.77 0.04,0.69 C0.02,0.61 0.01,0.52 0.03,0.43 C0.05,0.35 0.08,0.27 0.13,0.20 C0.19,0.13 0.26,0.08 0.34,0.05 C0.42,0.02 0.46,0.03 0.50,0.02Z"/>
    </clipPath>
  </defs>
  <path d="M200,8 C248,4 296,20 332,48 C356,68 376,96 384,128 C392,160 396,196 388,232 C380,260 368,288 348,312 C328,336 300,356 268,372 C236,388 200,396 164,392 C128,388 96,376 68,356 C44,336 24,308 16,276 C8,244 4,208 12,172 C20,140 32,108 52,80 C76,52 104,32 136,20 C168,8 184,12 200,8Z" fill="#0000F0" opacity="0.15" stroke="#0000F0" stroke-width="1"/>
</svg>