<svg xmlns="http://www.w3.org/2000/svg" viewBox="0 0 200 200" width="200" height="200">
  <path d="M60,20 C72,18 82,22 88,30 C94,38 96,48 92,56 C88,64 80,70 72,72 C64,74 54,72 48,66 C42,60 38,52 38,44 C38,36 42,28 48,24 C52,20 56,21 60,20Z" fill="none" stroke="#00008C" stroke-width="0.5" opacity="0.05"/>
  <path d="M155,55 C168,52 178,58 184,68 C190,78 190,90 184,98 C178,106 168,110 158,108 C148,106 140,98 138,88 C136,78 140,68 148,62 C152,58 153,56 155,55Z" fill="none" stroke="#00008C" stroke-width="0.5" opacity="0.05"/>
  <path d="M40,130 C55,126 68,132 75,144 C82,156 80,170 72,180 C64,190 50,194 38,190 C26,186 18,174 16,162 C14,150 20,138 30,132 C34,130 37,131 40,130Z" fill="none" stroke="#00008C" stroke-width="0.5" opacity="0.05"/>
  <path d="M145,145 C158,142 170,148 176,158 C182,168 182,180 176,188 C170,196 160,200 150,198 C140,196 132,188 130,178 C128,168 132,158 140,150 C143,148 144,146 145,145Z" fill="none" stroke="#00008C" stroke-width="0.5" opacity="0.05"/>
</svg>