<svg xmlns="http://www.w3.org/2000/svg" viewBox="0 0 48 48" width="48" height="48" fill="none" stroke="currentColor" stroke-width="1.5" stroke-linecap="round" stroke-linejoin="round">
  <!-- Handshake icon -->
  <!-- Left hand base -->
  <path d="M4,28 L10,22 L16,22"/>
  <!-- Right hand base -->
  <path d="M44,28 L38,22 L32,22"/>
  <!-- Clasped hands -->
  <path d="M16,22 C18,20 22,18 24,20 C26,22 28,20 30,18 C32,20 32,22 32,22"/>
  <path d="M16,22 C16,24 18,28 20,28 C22,28 24,26 26,26 C28,26 30,28 32,26"/>
  <!-- Arms -->
  <path d="M4,28 L4,36 L14,36 L16,30"/>
  <path d="M44,28 L44,36 L34,36 L32,30"/>
  <!-- Wrist cuffs -->
  <line x1="4" y1="28" x2="12" y2="28"/>
  <line x1="36" y1="28" x2="44" y2="28"/>
</svg>