<svg xmlns="http://www.w3.org/2000/svg" viewBox="0 0 48 48" width="48" height="48" fill="none" stroke="currentColor" stroke-width="1.5" stroke-linecap="round" stroke-linejoin="round">
  <!-- Gear outer shape -->
  <path d="M29,6 L28,10.5 C30,11.5 31.5,13 32.5,14.5 L37,13.5 L40,18.5 L36.5,21.5 C37,23 37,24.5 36.5,26 L40,29 L37,34 L32.5,33 C31.5,34.5 30,36 28,37 L29,41.5 L23,43 L21,38.5 C19.5,38.5 18,38 16.5,37.5 L13,41 L8.5,37.5 L10.5,33 C9,31.5 8,30 7.5,28 L3,27.5 L3,21.5 L7.5,20.5 C8,18.5 9,17 10.5,15.5 L8.5,11 L13,8 L16.5,11 C18,10.5 19.5,10 21,10 L23,5.5 Z"/>
  <!-- Gear center hole -->
  <circle cx="21" cy="24" r="6"/>
</svg>