<svg xmlns="http://www.w3.org/2000/svg" viewBox="0 0 1200 24" width="1200" height="24" preserveAspectRatio="none">
  <path d="M0,12 L18,11 L42,13 L68,10 L95,12 L130,14 L158,11 L185,13 L220,9 L248,12 L280,14 L310,11 L345,13 L372,10 L405,12 L440,14 L468,11 L500,13 L535,10 L562,12 L598,14 L625,11 L660,12 L690,14 L720,10 L755,13 L782,11 L815,12 L850,14 L878,10 L910,13 L945,11 L972,12 L1008,14 L1035,10 L1068,13 L1100,11 L1130,12 L1160,14 L1185,11 L1200,12" fill="none" stroke="#CFD1D2" stroke-width="1.5" stroke-linecap="round"/>
  <path d="M0,13 L25,14 L55,11 L82,13 L115,15 L145,12 L178,14 L210,11 L242,13 L275,15 L308,12 L340,14 L375,11 L408,13 L442,15 L475,12 L508,14 L542,11 L575,13 L608,15 L642,12 L675,14 L708,11 L742,13 L775,15 L808,12 L842,14 L875,11 L908,13 L942,15 L975,12 L1008,14 L1042,11 L1075,13 L1108,15 L1142,12 L1175,14 L1200,13" fill="none" stroke="#CFD1D2" stroke-width="0.75" stroke-linecap="round" opacity="0.6"/>
</svg>