<svg xmlns="http://www.w3.org/2000/svg" viewBox="0 0 500 350" width="500" height="350">
  <defs>
    <clipPath id="boulder-mask-2" clipPathUnits="objectBoundingBox">
      <path d="M0.08,0.42 C0.10,0.28 0.16,0.15 0.26,0.08 C0.36,0.01 0.48,0.02 0.58,0.04 C0.68,0.06 0.77,0.10 0.85,0.18 C0.92,0.26 0.96,0.37 0.97,0.48 C0.98,0.59 0.95,0.70 0.89,0.79 C0.83,0.88 0.73,0.94 0.62,0.97 C0.51,1.00 0.39,0.99 0.28,0.94 C0.18,0.89 0.10,0.80 0.06,0.70 C0.02,0.60 0.03,0.52 0.08,0.42Z"/>
    </clipPath>
  </defs>
  <path d="M40,147 C50,98 80,52.5 130,28 C180,3.5 240,7 290,14 C340,21 385,35 425,63 C460,91 480,129.5 485,168 C490,206.5 475,245 445,276.5 C415,308 365,329 310,339.5 C255,350 195,346.5 140,329 C90,311.5 50,280 30,245 C10,210 15,182 40,147Z" fill="#0000F0" opacity="0.15" stroke="#0000F0" stroke-width="1"/>
</svg>